<svg xmlns="http://www.w3.org/2000/svg" viewBox="0 0 360 96" role="img" aria-label="8bitconcepts">
  <rect x="8" y="16" width="64" height="64" rx="14" fill="#f4efe7" stroke="#0d0d0e" stroke-width="3"/>
  <path d="M29 23h22l5 5-5 5H29l-5-5zM24 31l5 5v9l-5 5-5-5v-9zM56 31l5 5v9l-5 5-5-5v-9zM29 42h22l5 5-5 5H29l-5-5zM24 50l5 5v9l-5 5-5-5v-9zM56 50l5 5v9l-5 5-5-5v-9zM29 61h22l5 5-5 5H29l-5-5z" fill="#0d0d0e"/>
  <text x="96" y="44" font-family="Inter, Arial, sans-serif" font-size="28" font-weight="700" fill="#0d0d0e">8bitconcepts</text>
  <text x="98" y="66" font-family="IBM Plex Mono, ui-monospace, monospace" font-size="12" font-weight="500" fill="#d97757" letter-spacing="1.8">EMBEDDED AI CONSULTING</text>
</svg>
